<svg id="Calque_1" data-name="Calque 1" xmlns="http://www.w3.org/2000/svg" viewBox="0 0 382.44 333.64"><defs><style>.cls-1{fill:#273ec9;}</style></defs><title>heartbroken</title><path class="cls-1" d="M1107.92,739.8l5.86-36-31.08-23.73,26.64-40-23.82-44,31.88-45.55-49.39-42,37.23-66.79A171.34,171.34,0,0,0,1062.33,413a7.08,7.08,0,0,0-1.75-.53,16,16,0,0,1-4.28-1.52,9.15,9.15,0,0,0-1.69-.67l-9.08-2.42-10.69-1.47-10.67-.13a4.1,4.1,0,0,0-.5,0l-13.24,1.32c-2.82.25-5.25.63-7.2,1a77,77,0,0,0-9.42,2.48c-.76.26-1.57.56-1.57.56-1.47.56-2.7,1.13-10.24,4.11,0,0-4.84,2-8.68,3.94-.38.19-.74.39-1.18.64s-2.36,1.33-4.82,3a109.26,109.26,0,0,0-14.44,11.82c-.13.12-.24.27-.37.39-6,5.73-4.24,3.92-9,9.73-.19.24-5.56,8.05-5.7,8.31a178.64,178.64,0,0,0-9.59,20.8c-.09.27-.17.54-.26.81l-2.69,9.68c-.68,3.73-1.36,7.43-2,11.16q-.44,5-.89,9.93c0,3.58-.06,7.15-.1,10.74q.43,6,.86,12l1.56,9.66,1.87,7.41,12,28.74L948,590.34l.4.61c18.16,25.43,41.63,45.57,65.27,65.54a3,3,0,0,1,.35.36,7.57,7.57,0,0,0,1.54,1.34,23,23,0,0,1,4.57,3.84l.91.87,2.39,2,11.44,9.46c22.18,17.49,43.5,35.91,62.22,57.16a32.46,32.46,0,0,0,8.93,7.58A8.69,8.69,0,0,0,1107.92,739.8Z" transform="translate(-922.21 -406.16)"/><path class="cls-1" d="M1303.5,493.84c-.59-3-1.18-5.92-1.78-8.89l-2.7-9.76c-.08-.24-.16-.49-.23-.73a174.91,174.91,0,0,0-9.29-20.27l-.49-.85a106.32,106.32,0,0,0-34.31-33l-.77-.42a184.21,184.21,0,0,0-20.26-8.51l-.65-.2-9.24-2.49-12.24-1.94-10.91-.57-9.94.4-9.68,1.28-11.85,3.79a10.68,10.68,0,0,1-2.78.86,8.31,8.31,0,0,0-2,.66,167.59,167.59,0,0,0-30.65,18.61L1093.47,504l50.75,43.17L1109,597.48l23.67,43.73-22.91,34.37,25.7,19.62-6,36.72c18.32-20.92,39.23-39.06,61-56.26l.86-.66.68-.6a76.07,76.07,0,0,1,10.15-8.38l.69-.54c13.72-12.07,28-23.48,41.32-36,10.27-9.66,19.66-20.15,28.92-30.7,5.19-5.92,8.89-13.14,13.24-19.8l5.89-11.53a48,48,0,0,1,2.27-5.15s.81-1.73.84-1.85c.07-.3.33-.87.4-1.16l4.8-14c0-.12.07-.24.11-.36l.7-2.7c.74-4.22,2-11.08,2.69-15.3A157.2,157.2,0,0,0,1303.5,493.84Z" transform="translate(-922.21 -406.16)"/></svg>