<svg id="Calque_1" data-name="Calque 1" xmlns="http://www.w3.org/2000/svg" viewBox="0 0 382.44 334.28"><defs><style>.cls-1{fill:#e85279;}</style></defs><title>heart</title><path class="cls-1" d="M466,413.34,479.18,412l.5,0,10.68.13,10.69,1.47,9.07,2.42a8.62,8.62,0,0,1,1.7.68,16.28,16.28,0,0,0,4.28,1.51,7.68,7.68,0,0,1,1.75.53c16.58,7.63,31.27,18.05,44.69,30.36l.74.77c5.49,6.34,5.61,6.22,11.28.25a166.62,166.62,0,0,1,45.33-31.26,7.81,7.81,0,0,1,2-.65,10.77,10.77,0,0,0,2.79-.87l11.85-3.79,9.67-1.28,9.94-.39,10.92.56,12.24,1.94,9.24,2.49.64.2a182.59,182.59,0,0,1,20.26,8.51l.78.42a106.45,106.45,0,0,1,34.31,33.06l.49.84a178.11,178.11,0,0,1,9.28,20.27l.24.74,2.7,9.75,1.78,8.89a156.54,156.54,0,0,1,.51,33.1L756.85,548l-.71,2.7-.1.36-4.8,14c-.07.3-.33.87-.4,1.16,0,.12-.84,1.85-.84,1.85a46,46,0,0,0-2.27,5.15l-5.89,11.53c-4.35,6.66-8.05,13.89-13.24,19.8-9.27,10.55-18.65,21-28.92,30.7-13.32,12.54-27.61,23.94-41.32,36l-.69.54a77.64,77.64,0,0,0-10.15,8.38l-.69.6-.85.66c-21.85,17.26-42.83,35.47-61.2,56.5-2.9,3.31-6,6.08-10.18,7.57l-1.19.34a25.72,25.72,0,0,1-9-.07,8.83,8.83,0,0,1-2.82-.93,32.57,32.57,0,0,1-8.93-7.57C533.9,716,512.58,697.53,490.4,680L479,670.59l-2.39-2-.9-.88a23.4,23.4,0,0,0-4.58-3.84,7,7,0,0,1-1.53-1.34,2.32,2.32,0,0,0-.35-.35c-23.64-20-47.11-40.12-65.27-65.55l-.41-.61L394,580.28l-12-28.74-1.88-7.41-1.55-9.66-.86-12.05.1-10.74c.3-3.31.59-6.62.89-9.93l2-11.15q1.35-4.85,2.69-9.69l.27-.81a178.5,178.5,0,0,1,9.59-20.79c.14-.27,5.51-8.08,5.7-8.31,4.78-5.82,3-4,9-9.74.13-.12.23-.27.36-.39a109.39,109.39,0,0,1,14.45-11.82c2.46-1.65,4.38-2.73,4.82-3l1.18-.64c3.83-2,8.68-3.94,8.68-3.94,7.53-3,8.76-3.54,10.23-4.1,0,0,.81-.31,1.57-.57a77,77,0,0,1,9.42-2.48C460.69,414,463.12,413.59,466,413.34Z" transform="translate(-377.73 -411.88)"/></svg>